<svg xmlns="http://www.w3.org/2000/svg" xmlns:xlink="http://www.w3.org/1999/xlink" width="1080" zoomAndPan="magnify" viewBox="0 0 810 809.999993" height="1080" preserveAspectRatio="xMidYMid meet" version="1.0"><defs><clipPath id="a0cbee2289"><path d="M 263.152344 64 L 546 64 L 546 747 L 263.152344 747 Z M 263.152344 64 " clip-rule="nonzero"/></clipPath><clipPath id="bfdf303240"><path d="M 263.152344 19.023438 L 546 19.023438 L 546 110 L 263.152344 110 Z M 263.152344 19.023438 " clip-rule="nonzero"/></clipPath><clipPath id="ee43e55dbb"><path d="M 263.152344 701 L 546 701 L 546 790.773438 L 263.152344 790.773438 Z M 263.152344 701 " clip-rule="nonzero"/></clipPath></defs><g clip-path="url(#a0cbee2289)"><path fill="#c79549" d="M 263.921875 64.023438 L 545.628906 64.023438 L 545.628906 746.023438 L 263.921875 746.023438 Z M 263.921875 64.023438 " fill-opacity="1" fill-rule="nonzero"/></g><g clip-path="url(#bfdf303240)"><path fill="#d7a355" d="M 545.628906 64.023438 C 545.628906 39.167969 482.5625 19.023438 404.769531 19.023438 C 326.980469 19.023438 263.921875 39.167969 263.921875 64.023438 C 263.921875 88.894531 326.980469 109.027344 404.769531 109.027344 C 482.5625 109.027344 545.628906 88.894531 545.628906 64.023438 Z M 545.628906 64.023438 " fill-opacity="1" fill-rule="nonzero"/></g><g clip-path="url(#ee43e55dbb)"><path fill="#c79549" d="M 545.628906 746.027344 C 545.628906 721.199219 482.5625 701.035156 404.769531 701.035156 C 326.980469 701.035156 263.921875 721.199219 263.921875 746.027344 C 263.921875 770.902344 326.980469 791.046875 404.769531 791.046875 C 482.5625 791.046875 545.628906 770.902344 545.628906 746.027344 Z M 545.628906 746.027344 " fill-opacity="1" fill-rule="nonzero"/></g></svg>