<svg xmlns="http://www.w3.org/2000/svg" xmlns:xlink="http://www.w3.org/1999/xlink" width="1080" zoomAndPan="magnify" viewBox="0 0 810 809.999993" height="1080" preserveAspectRatio="xMidYMid meet" version="1.0"><defs><clipPath id="8a5ce477a6"><path d="M 105.1875 105.1875 L 705.1875 105.1875 L 705.1875 705.1875 L 105.1875 705.1875 Z M 105.1875 105.1875 " clip-rule="nonzero"/></clipPath></defs><g clip-path="url(#8a5ce477a6)"><path fill="#ededed" d="M 405.054688 159.28125 C 485.117188 159.28125 494.582031 159.546875 526.265625 160.992188 C 555.449219 162.308594 571.355469 167.171875 582.003906 171.378906 C 595.941406 176.769531 605.929688 183.339844 616.449219 193.859375 C 626.964844 204.375 633.40625 214.367188 638.929688 228.300781 C 643.003906 238.820312 647.867188 254.726562 649.3125 284.042969 C 650.761719 315.726562 651.023438 325.191406 651.023438 405.25 C 651.023438 485.3125 650.761719 494.777344 649.3125 526.460938 C 648 555.644531 643.136719 571.554688 638.929688 582.203125 C 633.539062 596.136719 626.964844 606.128906 616.449219 616.644531 C 605.929688 627.164062 595.941406 633.605469 582.003906 639.125 C 571.488281 643.199219 555.582031 648.066406 526.265625 649.511719 C 494.582031 650.957031 485.117188 651.21875 405.054688 651.21875 C 324.992188 651.21875 315.527344 650.957031 283.84375 649.511719 C 254.660156 648.195312 238.753906 643.332031 228.105469 639.125 C 214.167969 633.734375 204.179688 627.164062 193.660156 616.644531 C 183.144531 606.128906 176.703125 596.136719 171.179688 582.203125 C 167.105469 571.683594 162.242188 555.777344 160.792969 526.460938 C 159.347656 494.777344 159.085938 485.3125 159.085938 405.25 C 159.085938 325.191406 159.347656 315.726562 160.792969 284.042969 C 162.109375 254.855469 166.972656 238.949219 171.179688 228.300781 C 176.570312 214.367188 183.144531 204.375 193.660156 193.859375 C 204.179688 183.339844 214.167969 176.898438 228.105469 171.378906 C 238.621094 167.300781 254.527344 162.4375 283.84375 160.992188 C 315.527344 159.546875 324.992188 159.28125 405.054688 159.28125 M 405.054688 105.25 C 323.546875 105.25 313.425781 105.644531 281.347656 107.09375 C 249.402344 108.539062 227.578125 113.664062 208.515625 121.027344 C 188.796875 128.652344 172.101562 138.90625 155.40625 155.601562 C 138.839844 172.296875 128.585938 188.992188 120.960938 208.714844 C 113.597656 227.777344 108.472656 249.597656 107.027344 281.542969 C 105.582031 313.488281 105.1875 323.742188 105.1875 405.121094 C 105.1875 486.628906 105.582031 496.75 107.027344 528.828125 C 108.472656 560.773438 113.597656 582.597656 120.960938 601.65625 C 128.585938 621.378906 138.839844 638.074219 155.535156 654.769531 C 172.230469 671.464844 188.929688 681.71875 208.648438 689.34375 C 227.710938 696.707031 249.53125 701.832031 281.480469 703.28125 C 313.425781 704.726562 323.679688 705.121094 405.1875 705.121094 C 486.691406 705.121094 496.816406 704.726562 528.894531 703.28125 C 560.839844 701.832031 582.660156 696.707031 601.722656 689.34375 C 621.445312 681.71875 638.140625 671.464844 654.835938 654.769531 C 671.53125 638.074219 681.785156 621.378906 689.410156 601.65625 C 696.773438 582.597656 701.898438 560.773438 703.34375 528.828125 C 704.792969 496.882812 705.1875 486.628906 705.1875 405.121094 C 705.1875 323.613281 704.792969 313.488281 703.34375 281.414062 C 701.898438 249.46875 696.773438 227.644531 689.410156 208.582031 C 681.785156 188.863281 671.53125 172.167969 654.835938 155.46875 C 638.140625 138.773438 621.445312 128.519531 601.722656 120.894531 C 582.660156 113.535156 560.839844 108.40625 528.894531 106.960938 C 496.816406 105.644531 486.5625 105.25 405.054688 105.25 " fill-opacity="1" fill-rule="nonzero"/></g><path fill="#ededed" d="M 405.054688 251.175781 C 319.996094 251.175781 251.109375 320.0625 251.109375 405.121094 C 251.109375 490.175781 320.128906 559.195312 405.1875 559.195312 C 490.242188 559.195312 559.261719 490.308594 559.261719 405.121094 C 559.128906 320.0625 490.109375 251.175781 405.054688 251.175781 M 405.054688 505.164062 C 349.839844 505.164062 305.140625 460.464844 305.140625 405.25 C 305.140625 350.035156 349.839844 305.339844 405.054688 305.339844 C 460.269531 305.339844 504.964844 350.035156 504.964844 405.25 C 505.097656 460.335938 460.269531 505.164062 405.054688 505.164062 " fill-opacity="1" fill-rule="nonzero"/><path fill="#ededed" d="M 601.199219 245.128906 C 601.199219 264.980469 585.027344 281.148438 565.175781 281.148438 C 545.324219 281.148438 529.15625 264.980469 529.15625 245.128906 C 529.15625 225.277344 545.324219 209.109375 565.175781 209.109375 C 585.027344 209.109375 601.199219 225.144531 601.199219 245.128906 " fill-opacity="1" fill-rule="nonzero"/></svg>