<svg xmlns="http://www.w3.org/2000/svg" xmlns:xlink="http://www.w3.org/1999/xlink" width="1080" zoomAndPan="magnify" viewBox="0 0 810 809.999993" height="1080" preserveAspectRatio="xMidYMid meet" version="1.0"><defs><clipPath id="ecb042dd79"><path d="M 98 162 L 712 162 L 712 661.269531 L 98 661.269531 Z M 98 162 " clip-rule="nonzero"/></clipPath></defs><g clip-path="url(#ecb042dd79)"><path fill="#ededed" d="M 649.085938 286.675781 C 649.453125 292.089844 649.453125 297.5 649.453125 302.953125 C 649.453125 469.34375 522.816406 661.230469 291.261719 661.230469 L 291.261719 661.132812 C 222.855469 661.246094 155.875 641.652344 98.292969 604.691406 C 108.234375 605.882812 118.234375 606.484375 128.261719 606.507812 C 184.945312 606.558594 240.011719 587.53125 284.609375 552.496094 C 230.734375 551.476562 183.5 516.347656 166.992188 465.046875 C 185.867188 468.695312 205.304688 467.945312 223.824219 462.875 C 165.089844 451.003906 122.835938 399.386719 122.835938 339.445312 C 122.835938 338.894531 122.835938 338.378906 122.835938 337.851562 C 140.335938 347.597656 159.9375 353.011719 179.976562 353.613281 C 124.664062 316.652344 107.617188 243.046875 141.023438 185.488281 C 204.9375 264.160156 299.238281 311.988281 400.472656 317.042969 C 390.324219 273.308594 404.191406 227.484375 436.898438 196.734375 C 487.605469 149.054688 567.351562 151.5 615.015625 202.195312 C 643.207031 196.636719 670.230469 186.285156 694.957031 171.628906 C 685.558594 200.785156 665.898438 225.542969 639.621094 241.269531 C 664.574219 238.320312 688.957031 231.644531 711.917969 221.445312 C 695.007812 246.78125 673.714844 268.851562 649.085938 286.675781 Z M 649.085938 286.675781 " fill-opacity="1" fill-rule="nonzero"/></g></svg>