<svg xmlns="http://www.w3.org/2000/svg" xmlns:xlink="http://www.w3.org/1999/xlink" width="1080" zoomAndPan="magnify" viewBox="0 0 810 809.999993" height="1080" preserveAspectRatio="xMidYMid meet" version="1.0"><defs><clipPath id="8202a3fa35"><path d="M 225.867188 321 L 584.367188 321 L 584.367188 489 L 225.867188 489 Z M 225.867188 321 " clip-rule="nonzero"/></clipPath><clipPath id="06cdadacff"><path d="M 225.867188 290 L 584.367188 290 L 584.367188 353 L 225.867188 353 Z M 225.867188 290 " clip-rule="nonzero"/></clipPath><clipPath id="ca339b706f"><path d="M 225.867188 457 L 584.367188 457 L 584.367188 520 L 225.867188 520 Z M 225.867188 457 " clip-rule="nonzero"/></clipPath></defs><g clip-path="url(#8202a3fa35)"><path fill="#528e38" d="M 225.867188 321.351562 L 584.285156 321.351562 L 584.285156 488.609375 L 225.867188 488.609375 Z M 225.867188 321.351562 " fill-opacity="1" fill-rule="nonzero"/></g><g clip-path="url(#06cdadacff)"><path fill="#68ac4a" d="M 584.285156 321.351562 C 584.285156 338.398438 504.050781 352.21875 405.074219 352.21875 C 306.101562 352.21875 225.867188 338.398438 225.867188 321.351562 C 225.867188 304.304688 306.097656 290.484375 405.074219 290.484375 C 504.050781 290.484375 584.285156 304.304688 584.285156 321.351562 Z M 584.285156 321.351562 " fill-opacity="1" fill-rule="nonzero"/></g><g clip-path="url(#ca339b706f)"><path fill="#528e38" d="M 584.285156 488.609375 C 584.285156 505.65625 504.050781 519.476562 405.074219 519.476562 C 306.101562 519.476562 225.867188 505.65625 225.867188 488.609375 C 225.867188 471.5625 306.097656 457.742188 405.074219 457.742188 C 504.050781 457.742188 584.285156 471.5625 584.285156 488.609375 Z M 584.285156 488.609375 " fill-opacity="1" fill-rule="nonzero"/></g></svg>