<svg xmlns="http://www.w3.org/2000/svg" xmlns:xlink="http://www.w3.org/1999/xlink" width="1080" zoomAndPan="magnify" viewBox="0 0 810 809.999993" height="1080" preserveAspectRatio="xMidYMid meet" version="1.0"><defs><clipPath id="b402fcfd5e"><path d="M 229 158.242188 L 580 158.242188 L 580 271 L 229 271 Z M 229 158.242188 " clip-rule="nonzero"/></clipPath><clipPath id="2ae10cfcc8"><path d="M 229 539 L 580 539 L 580 651.742188 L 229 651.742188 Z M 229 539 " clip-rule="nonzero"/></clipPath></defs><path fill="#528e38" d="M 229.851562 214.144531 L 579.566406 214.144531 L 579.566406 595.785156 L 229.851562 595.785156 Z M 229.851562 214.144531 " fill-opacity="1" fill-rule="nonzero"/><g clip-path="url(#b402fcfd5e)"><path fill="#68ac4a" d="M 579.566406 214.148438 C 579.566406 183.28125 501.304688 158.242188 404.710938 158.242188 C 308.117188 158.242188 229.851562 183.28125 229.851562 214.148438 C 229.851562 245.003906 308.117188 270.027344 404.710938 270.027344 C 501.304688 270.027344 579.566406 245.003906 579.566406 214.148438 Z M 579.566406 214.148438 " fill-opacity="1" fill-rule="nonzero"/></g><g clip-path="url(#2ae10cfcc8)"><path fill="#528e38" d="M 579.566406 595.785156 C 579.566406 564.953125 501.304688 539.910156 404.710938 539.910156 C 308.117188 539.910156 229.851562 564.953125 229.851562 595.785156 C 229.851562 626.675781 308.117188 651.691406 404.710938 651.691406 C 501.304688 651.691406 579.566406 626.675781 579.566406 595.785156 Z M 579.566406 595.785156 " fill-opacity="1" fill-rule="nonzero"/></g></svg>