<svg xmlns="http://www.w3.org/2000/svg" xmlns:xlink="http://www.w3.org/1999/xlink" width="500" zoomAndPan="magnify" viewBox="0 0 375 374.999991" height="500" preserveAspectRatio="xMidYMid meet" version="1.0"><defs><clipPath id="f0a68e0ce0"><path d="M 102 31.160156 L 273 31.160156 L 273 203 L 102 203 Z M 102 31.160156 " clip-rule="nonzero"/></clipPath><clipPath id="21a18a8f5d"><path d="M 49.074219 215.023438 L 325.527344 215.023438 L 325.527344 343.890625 L 49.074219 343.890625 Z M 49.074219 215.023438 " clip-rule="nonzero"/></clipPath></defs><g clip-path="url(#f0a68e0ce0)"><path fill="#ededed" d="M 272.734375 116.640625 C 272.734375 163.847656 234.523438 202.117188 187.386719 202.117188 C 140.253906 202.117188 102.046875 163.847656 102.046875 116.640625 C 102.046875 69.433594 140.253906 31.160156 187.386719 31.160156 C 234.523438 31.160156 272.734375 69.433594 272.734375 116.640625 " fill-opacity="1" fill-rule="nonzero"/></g><g clip-path="url(#21a18a8f5d)"><path fill="#ededed" d="M 187.257812 215.167969 C 111.542969 215.167969 71.867188 237.914062 51.078125 275.101562 C 47.40625 281.675781 48.894531 289.933594 54.609375 294.824219 C 90.328125 325.417969 136.703125 343.890625 187.386719 343.890625 C 237.988281 343.890625 284.289062 325.480469 319.984375 294.984375 C 325.699219 290.097656 327.199219 281.84375 323.539062 275.269531 C 302.777344 237.980469 263.097656 215.167969 187.257812 215.167969 " fill-opacity="1" fill-rule="nonzero"/></g></svg>